<svg xmlns="http://www.w3.org/2000/svg" viewBox="0 0 839.88 531.01"><defs><style>.cls-1{isolation:isolate;}.cls-2{fill:#e2ddc7;}.cls-10,.cls-2,.cls-5,.cls-7{mix-blend-mode:multiply;}.cls-3{fill:#f2ecce;}.cls-4{fill:#bc9c75;}.cls-5{fill:#e0ccc1;}.cls-6{fill:#725649;}.cls-11,.cls-7{fill:#ead7cc;}.cls-8{fill:#7c5f50;}.cls-9{fill:#51423b;}</style></defs><g class="cls-1"><g id="Layer_2" data-name="Layer 2"><g id="Ñëîé_1" data-name="Ñëîé 1"><ellipse class="cls-2" cx="455.02" cy="500.17" rx="384.86" ry="30.84"/><path class="cls-3" d="M355.25,330.4c.87,7.65,2.07,15.34,1.35,23-.54,5.81-2.18,11.47-3,17.25-3.29,22.84,6,45.36,10.47,68,.26,1.3.48,2.74-.22,3.86-.9,1.42-2.82,1.66-4.4,2.23-7.34,2.69-7.52,12.76-10.49,20-5.48,13.34-22.63,17.91-36.89,15.73-3.18-.49-6.85-1.68-7.78-4.76s1.6-6.24,3.85-8.69c22-23.87,31.59-60.41,18.54-90.13-2.77-6.3-6.46-12.21-8.5-18.77-2.75-8.83-2.36-18.29-3.81-27.42-2.26-14.32-9-27.56-12.32-41.68s-2.45-30.78,8.1-40.74a27.62,27.62,0,0,1,25.31-6.55c14.64,3.73,20.4,15.7,19.34,29.36C353.25,290.93,353,310.58,355.25,330.4Z"/><path class="cls-4" d="M313,461.3c.45,0,.89.1,1.33.15a83.62,83.62,0,0,0,36.85-3.76,61.13,61.13,0,0,1-2.2,7.05c-5.48,13.34-22.63,17.91-36.89,15.73-3.18-.49-6.85-1.68-7.78-4.76s1.6-6.24,3.86-8.69C309.82,465.19,311.43,463.27,313,461.3Z"/><path class="cls-5" d="M355.25,330.4c.87,7.65,2.07,15.34,1.35,23-.54,5.81-2.18,11.47-3,17.25-3.29,22.84,6,45.36,10.47,68,.26,1.3.48,2.74-.22,3.86-.9,1.42-2.82,1.66-4.4,2.23-7.34,2.69-7.52,12.76-10.49,20-5.48,13.34-22.63,17.91-36.89,15.73-3.18-.49-6.85-1.68-7.78-4.76s1.6-6.24,3.85-8.69c22-23.87,31.59-60.41,18.54-90.13-2.77-6.3-6.46-12.21-8.5-18.77-2.75-8.83-2.36-18.29-3.81-27.42-2.26-14.32-9-27.56-12.32-41.68s-2.45-30.78,8.1-40.74a27.62,27.62,0,0,1,25.31-6.55c14.64,3.73,20.4,15.7,19.34,29.36C353.25,290.93,353,310.58,355.25,330.4Z"/><path class="cls-3" d="M634.32,268.43q-1.91-2.69-4.05-5.19h66.57a42.49,42.49,0,0,0,2,7.73c1.85,5.22,5.67,13.27,12.84,28.42.54,1.15,1.66,3.61,3.13,7,4.7,10.73,7.06,16.1,6.79,20.59-.5,8.12-4.93,10.57-8.91,20.52-3.35,8.36-3.58,15-3.95,25.48-.69,19.36-1.92,53.1-2.94,96.4l-12.39-.58a30.27,30.27,0,0,1-43.62,28.58,5.34,5.34,0,0,1-2.66-2.26c-1-2.06.71-4.32,2.22-6a122,122,0,0,0,29.19-61.94c7.07-45.57-12-90.7-30.68-132.88C643.89,285.34,639.92,276.38,634.32,268.43Z"/><path class="cls-6" d="M762.23,303.5c-.72-9.21-3.54-18.11-5.09-27.22-4.92-29,3.29-58.37,9-87.21C773.11,154.26,780.53,118,776.33,84c-.92-7.45-2.92-19.07-12.06-28.4-9.74-10-22.51-12.1-28.51-12.69.2,3.22-.07,7.69-2.75,11.59-1.76,2.57-3.41,3.21-3.8,5.15-.93,4.53,6.72,9.08,9.24,11.63,13.44,13.59,23.57,31.38,24.28,50.48.27,7.15-.77,14.27-1.81,21.35-4,27.53-8.09,55.08-13.46,82.39-1.84,9.35-3.84,18.69-4.8,28.18a260.45,260.45,0,0,0-.85,26.95c.05,17.44-1.29,38.65,5.75,55C759.41,335.34,762.86,311.68,762.23,303.5Z"/><path class="cls-4" d="M649.76,497.34a5.34,5.34,0,0,1-2.66-2.26c-1-2.06.71-4.32,2.22-6a121.6,121.6,0,0,0,9.73-12.55c6-.58,12.42.36,18.5.31a51.62,51.62,0,0,0,15.55-2.55,30.22,30.22,0,0,1-43.34,23.07Z"/><path class="cls-5" d="M634.32,268.43q-1.91-2.69-4.05-5.19h66.57a42.49,42.49,0,0,0,2,7.73c1.85,5.22,5.67,13.27,12.84,28.42.54,1.15,1.66,3.61,3.13,7,4.7,10.73,7.06,16.1,6.79,20.59-.5,8.12-4.93,10.57-8.91,20.52-3.35,8.36-3.58,15-3.95,25.48-.69,19.36-1.92,53.1-2.94,96.4l-12.39-.58a30.27,30.27,0,0,1-43.62,28.58,5.34,5.34,0,0,1-2.66-2.26c-1-2.06.71-4.32,2.22-6a122,122,0,0,0,29.19-61.94c7.07-45.57-12-90.7-30.68-132.88C643.89,285.34,639.92,276.38,634.32,268.43Z"/><path class="cls-7" d="M757.14,276.28c1.55,9.11,4.37,18,5.09,27.22.63,8.18-2.82,31.84-14.67,32.13-7-16.35-5.7-37.56-5.75-55a260.45,260.45,0,0,1,.85-26.95c1-9.49,3-18.83,4.8-28.18q1.5-7.67,2.87-15.36,3.45,11.66,7.22,23.21C755.48,247.68,754.72,262,757.14,276.28Z"/><path class="cls-3" d="M175.75,236.31c8.41,9.06,19,15.85,27.78,24.52,10.23,10.07,17.91,22.47,28,32.66s23.92,18.35,38.14,16.39c17.75-2.45,29.76-19.25,46-26.82,15.12-7,33-5.52,48.87-.53s30.59,13.2,46,19.54c57.32,23.57,125.23,19.69,179.48-10.25,2.55-1.41,5.36-2.93,8.22-2.4,3.32.62,5.42,3.5,6.91,5.8a62.33,62.33,0,0,1,9.41,25.84c.95,11.37-1.63,17.95,2.58,21a6.84,6.84,0,0,0,5.68,1.09c5.9-1.78,3.91-13.32,11.39-17.69a11.49,11.49,0,0,1,9.55-.83c4.82,1.83,6.71,7,7.1,8.23,2.8,8.5-3.63,15,.23,20.12a6.68,6.68,0,0,0,3.8,2.63c5,.88,11.5-6.75,16.32-19.28a42,42,0,0,0,7.55-4.74c2-1.6,3.6-3.15,7.78-6.44.75-.6,1.39-1.09,2-1.52,5.43-4.17,7-4.85,10.22-8.65,9.48-11.23,13.46-26,17-40.23,13.17-53.35,23.62-107.32,34.07-161.27l6.09-31.41C758.08,70.62,759.64,57,751.15,49c-5.87-5.5-14.61-6.26-22.64-6.66a1464.61,1464.61,0,0,0-160.4.84c-32.1,1.93-64.35,4.92-96.33,1.51-23.78-2.53-47.31-8.59-71.22-7.87-15.6.47-31,3.84-46.65,3.84-29.8,0-59.08-12.27-88.69-8.87-26.11,3-49.94,18-76.19,19.39-19.1,1-37.8-5.26-56.85-7-4.09-.37-8.5-.46-11.93,1.79-4,2.61-5.52,7.58-6.8,12.16-5.1,18.36-10.24,36.95-10.74,56-.34,13.25,1.7,26.94,7.38,39s14.81,12.61,23.74,21.22C152,191.85,158.66,217.9,175.75,236.31Z"/><path class="cls-7" d="M597.38,238.56l8.26-55.19c18.56.55,36.05,9.75,49.8,22.22s24.2,28.1,34,43.84c8.45,13.52,16.74,28,21.2,43.15-2.79,8.13-6.43,15.86-12,22.39-3.21,3.8-4.79,4.48-10.22,8.65-.57.43-1.21.92-2,1.52-3.92,3.08-5.54,4.64-7.41,6.14C670.17,289.23,638.22,252.43,597.38,238.56Z"/><path class="cls-3" d="M738,238.19c-3.08,23-3.39,34.61.42,45.28,2,5.5,6,14,13.54,30,.58,1.21,1.75,3.8,3.3,7.34,5,11.32,7.45,17,7.16,21.71-.52,8.56-5.19,11.15-9.39,21.64C749.52,373,749.28,380,748.88,391c-.72,20.42-2,56-3.09,101.66L732.72,492a31.92,31.92,0,0,1-46,30.13,5.53,5.53,0,0,1-2.8-2.38c-1-2.17.75-4.55,2.34-6.35A128.6,128.6,0,0,0,717,448.13c7.47-48.06-12.66-95.64-32.34-140.12-4.15-9.38-8.34-18.83-14.25-27.22a76.85,76.85,0,0,0-50.24-31.45c-13.11-2-28.93-1.69-36.37-12.68-2.73-4-3.74-8.95-4.55-13.75a257.26,257.26,0,0,1,1-90.81c3.64-19,10-38.61,24.26-51.77,3.92-3.63,12.67-10.94,29.76-16.53,47.09-15.38,104.46-.49,123.3,5-1.12,26.56-3.37,47.93-5.12,62C744.35,195.9,739.36,228.28,738,238.19Z"/><path class="cls-6" d="M132.18,44.18c19,1.74,37.75,8,56.85,7,26.25-1.4,50.08-16.39,76.19-19.39a118.77,118.77,0,0,1,29.18.74,140.18,140.18,0,0,0,24.25,8.85C308.28,57.8,336.59,75.79,333.54,95c-1.37,8.66-9,15.17-11.05,23.69-2.16,9,1.81,19.88-4.29,26.8-4.11,4.67-11,5.23-17,6.82s-12.62,6.23-11.64,12.37c.4,2.49,2,4.6,3.73,6.44,17.27,18.33,51.82,14.89,65.12-6.49,14.21-22.84,4.29-55.52,20.32-77.13a138.63,138.63,0,0,1-41-47.87,135.33,135.33,0,0,0,16.21,1.06c15.61,0,31-3.37,46.65-3.84,20.36-.62,40.44,3.68,60.64,6.54a14.46,14.46,0,0,1,1.92,5.92c1.06,10-7.81,21.71-.87,29,6.18,6.48,20.71,2.88,22.91,11.57,1.38,5.47-4.32,10.39-4.45,16-.13,6.3,7.08,10.69,13.35,10s11.57-4.73,16.51-8.64c3.51-2.78,7.14-5.7,9.09-9.74,5.11-10.59-3.68-22.9-13.7-29s-22.11-9.67-29.65-18.69a38.24,38.24,0,0,1-3.46-5c31.63,3.23,63.52.3,95.26-1.61Q593.93,41.64,619.8,41c2.55,15.7,18.56,29.45,35,27.95,7.15-.65,14-3.5,21.16-3.82,13.89-.61,28.07,11.12,27.28,25s-19.92,23.62-30.23,14.31c-6.34-5.73-8.6-16.51-16.9-18.54-7.34-1.79-13.86,4.69-18.63,10.54q-5.7,7-11.39,13.94c-1.65,2-3.36,4.15-3.88,6.71-1.27,6.16,4.46,11.19,8.14,16.29a28.7,28.7,0,0,1,3.6,26.19c16.09,4.64,28.77,16.76,40.75,28.46,2.57,2.52,5.23,5.16,6.43,8.55,3.46,9.77-6.58,19-16.2,22.91A72.88,72.88,0,0,1,622.26,223c-6.26-1.4-13-4.2-15.57-10.07-3.2-7.2,1.15-15.28,2.63-23s-3.89-18.5-11.29-15.79c2.12,7-5,13.41-11.77,16.31s-14.82,5.22-18,11.88c-1.24,2.64-1.5,5.64-2.63,8.32-4.67,11-21.26,10.83-31,3.85s-15.57-18.13-24.49-26.1-24.22-11.71-32.06-2.68a67.06,67.06,0,0,0-23.59-53.25c-.65,7.18-8.9,11.67-16.07,10.92s-13.36-5.15-19.18-9.41A562.54,562.54,0,0,1,409.94,190c-1.13,5.14-2.75,10.84-7.33,13.42-7.79,4.38-16.66-3.32-22.26-10.29-9.39,4.9-12.91,16.23-16.67,26.13S353.19,240,342.62,240.55c-5.64.3-12-2.38-16.52,1-3,2.28-3.91,6.56-6.89,8.87-5.69,4.43-13.75-1-20.95-.77-10.75.33-17,13.9-20.73,20.83-8.28,15.51-4.84,25.33-12.74,29.53-5.47,2.91-14.08,1.93-15.9-2.26-1.33-3,1-7.71,5.31-11.56,6.39-17.66,5.06-33.24-2.77-38.32-3.63-2.36-8.1-2.1-11.54-1.89-13.11.78-21.93,9-25,12.11-.42-8.42-11.57-12.65-19.43-9.59a22.41,22.41,0,0,0-3.81,1.95c-5.51-4.5-11.06-9-15.9-14.17-9.12-9.82-15.28-21.82-21.79-33.53,1.22-1.18,2.44-2.38,3.56-3.66,11.53-13.19,11.11-35.18-.91-47.92,6.14-12.39,2.72-28.78-7.86-37.68L126,44.09A32.22,32.22,0,0,1,132.18,44.18Z"/><path class="cls-6" d="M714.44,228.47c-2-4-.76-6.68,0-13.95,1.19-11.22-7.66-21.43-7.57-32.71.08-9.69,6.59-17.92,11.28-26.4,17.7-32,9.62-73.64-12.07-103.06a84.42,84.42,0,0,0-9.71-11.22c7.79-.1,18.86,0,32.13,1.21,20.07,1.76,23.18,3.91,24.89,5.45,7.81,7,6.63,19.44,4.69,41.49-5.27,60.06-2.76,44.43-4.59,56-5.8,36.51-11,67.53-15.48,92.93C728.89,237.69,718,235.69,714.44,228.47Z"/><path class="cls-8" d="M55.62,65.82c-4.57-.95-9.19,1-13.83,1.52-13.55,1.47-25-9.26-34.4-19.16C4.67,45.3,1.87,42.3.6,38.55S0,30.07,3.29,27.82C5.2,26.5,7.61,26.23,9.92,26c9.64-1,20-1.78,28.37,3.13,7.23,4.25,12.46,12.55,20.78,13.57,2.29.28,4.89-.19,6.3-2a10.74,10.74,0,0,0,1.52-4.51c1.31-6.53,7.83-16,14.07-20.53,7.66-5.49,16-5.42,24.39-5.35,7.5.07,16.91.15,25.51,5.94,5.39,3.64,10.63,9.62,20.9,21.36,1.82,2.08,6.15,7.4,9.39,5.9a9,9,0,0,0,2.48-2,44.23,44.23,0,0,1,43.9-11.1c2.38.75,4.89,1.86,6.09,4,1.1,2,.85,4.48.38,6.72a39.09,39.09,0,0,1-48.92,29.46c-4.22-1.2-9.67-2.73-12.26.81a8.94,8.94,0,0,0-1.3,4.83c-1.05,17,3.81,34.9-2.62,50.68-3.71,9.11-10.79,16.35-16.45,24.39s-10.09,18.08-7.4,27.54c.91,3.22,2.58,6.83.81,9.68a8.61,8.61,0,0,1-4.27,3c-15,6.09-31.84,4.15-47.87,2.11-3.37-.42-7.17-1.11-9-4-1.67-2.58-1.07-6-.41-9q2.24-10.17,4.46-20.34c.57-2.59,1.14-5.2,1.45-7.84,1-8.14-.6-16.34-2.14-24.39q-2.86-14.86-5.72-29.74C61,91.56,59.7,84.51,60.82,77.55,61.6,72.7,62,67.16,55.62,65.82Z"/><path class="cls-4" d="M143.1,36.26a16,16,0,0,1-7.5-4.93c-4.95-5.37-5.1-12.49-5.1-14.22,3.37-.71,6.06-1.21,7.79-1.52a102.74,102.74,0,0,0,11.07-3.34,2.77,2.77,0,0,0,1.45-1c.88-1.28-.14-3-1.12-4.18s-1.91-2.35-2.87-3.53a2.94,2.94,0,0,1-.93-2.2c.3-1.64,2.72-1.5,4.24-.81a31.87,31.87,0,0,1,14.12,12.65c1.35,2.26,2.43,4.86,2.05,7.46-.51,3.47-3.42,6-6.18,8.18-4.13,3.23-8.46,6.38-13.38,8.11A18.74,18.74,0,0,1,143.1,36.26Z"/><path class="cls-4" d="M47.13,12.89c2.21-3.5,5.81-5.9,9.53-7.71,1.05-.52,2.67-.81,3.11.28s-1.2,2.08-2,3.12c-1.2,1.5.26,3.88,1.06,5s2.54,2.41,9.55,2.64a62.6,62.6,0,0,0,13-.92,19.65,19.65,0,0,1-.81,7.35c-2.85,9.2-11.68,13.11-13.43,13.85a77.94,77.94,0,0,1-15.6-7.61,15.46,15.46,0,0,1-4.82-4.23C44.37,21.18,44.91,16.39,47.13,12.89Z"/><path class="cls-3" d="M82,152.87c4-2.85,5.58-6.74,7.79-12.29,3.45-8.66,2.84-16.78,1.65-26.8C88.5,89.42,86.54,73,82.53,57.39A64.64,64.64,0,0,1,81,42.77c0-6.87,1.09-10,2.49-12.41a17.14,17.14,0,0,1,1.79-2.49,44,44,0,0,0,13,3.21c3.39.2,6.79.12,10.17.43,2.71.24,6.81.59,8.55,3a1.3,1.3,0,0,0,1.46.59c2.9-1,5.92-1.77,8.93-2.57a26.47,26.47,0,0,1-.92,23.26q-4.17,9.41-8.35,18.8-4.71,8.61-9.4,17.23L96.1,141.46a43.76,43.76,0,0,0,20.37,27.67,32.2,32.2,0,0,0-9.92.52A32.9,32.9,0,0,0,91.93,177a135.75,135.75,0,0,0-13.58-6.78c-3.77-1.63-6.84-2.75-7.38-5.26-.41-1.88.81-3.64,1.84-5.08C75.68,155.81,79,154.94,82,152.87Z"/><path class="cls-9" d="M64.44,79.34a4.53,4.53,0,0,1,1.84,1.56A23.4,23.4,0,0,1,69.14,85a7.92,7.92,0,0,1,1,4.8c-2.12.71-4.63,1.37-6.44.07-1.56-1.12-1.95-3.27-1.94-5.19C61.71,83.1,61.41,78.27,64.44,79.34Z"/><path class="cls-9" d="M132.88,84.71a8.64,8.64,0,0,1,5.6-4.35,3.21,3.21,0,0,1,4.14,2.16,7.29,7.29,0,0,1-.3,6,7.2,7.2,0,0,1-4.81,3.65,27.25,27.25,0,0,1-6,.18C131.57,89.8,131.55,87.12,132.88,84.71Z"/><path class="cls-9" d="M71.35,174.7c.81-.55,2.84,1.16,3.72,1.9a18.72,18.72,0,0,1,5.31,7.65c-1.4-.12-5.56-.68-7.83-3.94C71.14,178.29,70.49,175.28,71.35,174.7Z"/><path class="cls-9" d="M102.07,182.77a31.89,31.89,0,0,1,8.76-6.37,3.94,3.94,0,0,1,2.52-.53,1.75,1.75,0,0,1,1.55,1.78,2.57,2.57,0,0,1-.61,1.15c-3.87,5.07-5,6.15-7.65,6.57-2.29.36-5-.42-5.17-1.45C101.39,183.49,101.76,183.09,102.07,182.77Z"/><path class="cls-4" d="M692.75,505.49c4-.16,8,.55,12,.95a76.93,76.93,0,0,0,25.92-1.83,31.74,31.74,0,0,1-43.95,17.56,5.53,5.53,0,0,1-2.8-2.38c-1-2.17.75-4.55,2.34-6.35C688.54,510.89,690.69,508.22,692.75,505.49Z"/><path class="cls-7" d="M184,232.15c4.88,3.14,10.27,5.4,15.17,8.49,12.31,7.75,20.9,20.22,32.54,28.92A66.67,66.67,0,0,0,295,278c7.42-2.94,14.26-7.22,21.74-10,22.1-8.15,47-2.13,68.33,7.89s40.72,23.93,62.59,32.67a171.09,171.09,0,0,0,27.88,8.32,205.73,205.73,0,0,1-65-14.83c-15.42-6.34-30.1-14.55-46-19.54s-33.75-6.5-48.87.53c-16.24,7.57-28.25,24.37-46,26.82-14.22,2-28-6.2-38.14-16.39s-17.78-22.59-28-32.66c-8.81-8.67-19.37-15.46-27.78-24.52C162.07,221.57,155,202,143.48,185.72,157.82,200.43,166.66,221,184,232.15Z"/><path class="cls-3" d="M267.24,345.9c-.52,10.78-1.73,22.07,2.61,32,1.49,3.41,3.63,6.58,4.47,10.21,1.1,4.79-.18,9.78-1.45,14.53-3.83,14.28-7.68,28.62-13.59,42.17a149.48,149.48,0,0,1-25.16,39.39c-1.39,1.56-2.92,3.57-2.2,5.54a5.44,5.44,0,0,0,2.93,2.62,40.62,40.62,0,0,0,33.38,1.05c5.13-2.16,10.14-5.89,11.41-11.31.9-3.83-.23-7.84,0-11.77s2.78-8.4,6.71-8.25c3.14.13,6.18,3.19,9,1.8l.39-44.5c.09-10,.19-20.06,2.26-29.84,3.52-16.64,12.69-32.1,13.23-49.1.4-12.22-3.72-24.61-1-36.52,3.72-16,18.77-26.88,25.15-42,7.8-18.5.9-40.85-12.91-55.41s-33.31-22.45-52.86-27c-11.36-2.65-25.63-3.26-32.24,6.36-4.51,6.56-3.44,15.41-1.34,23.09,6,22.05,16.57,41.75,22.8,63.85A229.68,229.68,0,0,1,267.24,345.9Z"/><path class="cls-4" d="M234.85,492.31a5.44,5.44,0,0,1-2.93-2.62c-.72-2,.81-4,2.2-5.54,3.08-3.47,6-7.1,8.71-10.84a98.12,98.12,0,0,0,36.77-1.87c0,3.55.85,7.15,0,10.61-1.27,5.42-6.28,9.15-11.41,11.31A40.62,40.62,0,0,1,234.85,492.31Z"/><path class="cls-6" d="M251.34,250.84c-13.73-18.36-17.43-35.08-18.61-44.53-1.19-9.6-2.22-18.93,3.43-25.21,7.44-8.25,21.71-6,33.88-4,8.12,1.3,35.39,6.05,56.06,29.24,8.76,9.83,20.11,27.19,15.73,32.47a5.11,5.11,0,0,1-3.42,1.59,30.59,30.59,0,0,0-9-6.72c-1.54-.75-15.82-8.27-22-1.31-3.6,4.07-3.78,11-8.6,13.53-3.85,2-5.63-.57-12.13.06-10.53,1-13,8.64-22.06,9.18C261.56,255.3,257.05,254.73,251.34,250.84Z"/><path class="cls-7" d="M248.25,165.1c-1.45,4.22-1.8,8.74-2.14,13.19L243.35,215q-6.42-21.37-10.69-43.33c-2-10.36-3.51-21.76,1.73-30.93,3.78-6.6,10.45-10.92,16.88-15l35.3-22.33c-8.23,5.2-10.94,23.47-15.73,31.69C264.49,146,252.48,152.84,248.25,165.1Z"/><path class="cls-7" d="M581.74,50.77l-27.86-6.69,14.23-.9a1464.61,1464.61,0,0,1,160.4-.84c5.14.25,10.58.66,15.36,2.37a44.72,44.72,0,0,0-10.21,3.79c-13.19,6.91-21.49,20.32-28.9,33.23a1218.35,1218.35,0,0,0-63.61,127.62,348.54,348.54,0,0,0,8.32-73.61c.13-22.49-2.8-47-18.6-63C618.09,59.79,599.42,55,581.74,50.77Z"/><g class="cls-10"><path class="cls-11" d="M143.84,120.77c4-7.61,5.57-16.27,7-24.76.27-1.57.55-3.14.82-4.71.66,12.22,1.76,24.44-2.79,35.6-3.71,9.11-10.79,16.35-16.45,24.39s-10.09,18.08-7.4,27.54c.91,3.22,2.58,6.83.81,9.68a6.86,6.86,0,0,1-.48.59q-1.56-8.13-2.6-16.33c-.85-6.73-1.42-13.69.45-20.22C126.71,140.34,137.88,132,143.84,120.77Z"/></g><path class="cls-7" d="M7.39,48.18C4.67,45.3,1.87,42.3.6,38.55S0,30.07,3.29,27.82A7.9,7.9,0,0,1,4.92,27c8.42.75,16.68,2.45,23.74,7,8.44,5.37,14.55,14.41,24,17.83,3.8,1.39,8.57,2.27,10,6A10.34,10.34,0,0,1,63,62.62a94.85,94.85,0,0,1-1.76,10.84c.05-3.51-1-6.67-5.61-7.64s-9.19,1-13.83,1.52C28.24,68.81,16.76,58.08,7.39,48.18Z"/><path class="cls-7" d="M162.17,56.41a97.57,97.57,0,0,1,47.25-20.56c1.32-.19,2.83-.3,3.81.6a4.43,4.43,0,0,1,1,3.36c-.06.44-.14.88-.23,1.31a39.09,39.09,0,0,1-48.92,29.46c-4.22-1.2-9.67-2.73-12.26.81a8.94,8.94,0,0,0-1.3,4.83c-.08,1.23-.11,2.47-.14,3.7-.11-4.31,0-8.7,1.63-12.67C154.85,62.84,158.45,59.41,162.17,56.41Z"/></g></g></g></svg>