<svg xmlns="http://www.w3.org/2000/svg" viewBox="0 0 214.02 164.5"><defs><style>.cls-1{isolation:isolate;}.cls-2{fill:#decec8;}.cls-3{fill:#2e2a29;}.cls-4{fill:#262322;}.cls-5,.cls-6{fill:#7f7671;}.cls-6{opacity:0.61;}.cls-13,.cls-25,.cls-6{mix-blend-mode:multiply;}.cls-7{fill:#e9a3a3;}.cls-8{fill:#d19292;}.cls-9{fill:#c9c2b8;}.cls-10,.cls-13{fill:#b3a69f;}.cls-11{fill:#1a1a1a;}.cls-12{fill:none;}.cls-14{fill:#a18b66;}.cls-15{fill:#8f7b5a;}.cls-16{fill:#121212;}.cls-17{fill:#141414;}.cls-18{fill:#8c827c;}.cls-19{fill:#d1a3a3;}.cls-20{fill:#242424;}.cls-21{fill:#ebebeb;}.cls-22{fill:#735151;}.cls-23{fill:#c4a97c;}.cls-24{fill:#b59c73;}.cls-25{opacity:0.83;}</style></defs><g class="cls-1"><g id="Layer_2" data-name="Layer 2"><g id="Objects"><ellipse class="cls-2" cx="120.26" cy="153.88" rx="90.08" ry="7.49" transform="translate(-12.51 10.65) rotate(-4.82)"/><path class="cls-3" d="M164.7,135.81l1.08,7.48a3.16,3.16,0,0,1-1.5,3.15c-3.16,1.89-9.91,5.05-15.29,1.51,0,0-1-4.76,5.88-8.46Z"/><path class="cls-4" d="M154.87,139.49l2.39-.9c-1.12,1.14-2.31,2.21-3.51,3.24s-2.56,2.49-1.66,4.31c.76,1.54,2.44,2.55,4,3.32A10.37,10.37,0,0,1,149,148S148,143.19,154.87,139.49Z"/><path class="cls-5" d="M162.78,92.24s-1.71,36.35-4.73,41.59a9.14,9.14,0,0,0-4.69,3.5,9,9,0,0,0-1.52,4.32,21.78,21.78,0,0,0,4.58-.59,25.2,25.2,0,0,0,10-5.12l-.74-1.68a8.55,8.55,0,0,1-.27-6.29c2.33-6.73,7.57-22.82,8.88-35Z"/><path class="cls-6" d="M161.67,109.77c.74-9.27,1.14-17.62,1.14-17.62l11.55.76c-.93,8.55-3.8,19.06-6.23,26.88C167.78,119.1,164,112,161.67,109.77Z"/><path class="cls-7" d="M146.89,94l16-18,18.29,21.44a22,22,0,0,1-9,4.57,10.35,10.35,0,0,1-1.39,3.88,1.64,1.64,0,0,1-2.92-.33,15.28,15.28,0,0,1-.73-2.88,23.39,23.39,0,0,1-3.29-.18,9.48,9.48,0,0,1-1.52,2.94,1.64,1.64,0,0,1-2.87-.61,13.91,13.91,0,0,1-.47-3.46c-.82-.28-1.66-.6-2.52-1a9.46,9.46,0,0,1-1.82,2.75,1.64,1.64,0,0,1-2.79-.91,13.21,13.21,0,0,1,0-4.34A44.44,44.44,0,0,1,146.89,94Z"/><path class="cls-8" d="M164,91.06c-4.07.9-8,2.25-12.11,3.06a38.17,38.17,0,0,1-4,.68q-.47-.37-.93-.78l16-18L175,90.18A41.67,41.67,0,0,0,164,91.06Z"/><path class="cls-8" d="M146.9,94.16l2.35-2.64c12.64,15,29.82,4.62,30.48,4.29l1.49,1.74a22,22,0,0,1-9,4.57,10.35,10.35,0,0,1-1.39,3.88,1.63,1.63,0,0,1-2.91-.33,13.73,13.73,0,0,1-.73-2.88,23.45,23.45,0,0,1-3.3-.18,9.48,9.48,0,0,1-1.52,2.94,1.64,1.64,0,0,1-2.87-.6,14,14,0,0,1-.47-3.46c-.82-.28-1.66-.61-2.51-1a9.62,9.62,0,0,1-1.83,2.76,1.64,1.64,0,0,1-2.79-.92A13,13,0,0,1,152,98,43.36,43.36,0,0,1,146.9,94.16Z"/><path class="cls-3" d="M75.37,143.35l1.08,7.47A3.14,3.14,0,0,1,75,154c-3.16,1.89-9.91,5.06-15.29,1.52,0,0-1-4.76,5.88-8.47Z"/><path class="cls-4" d="M65.54,147l9.83-3.67,0,.33-6.79,2.54c-6.86,3.71-5.89,8.46-5.89,8.46a10.58,10.58,0,0,0,7.74,1.42c-3.28,1.16-7.33,1.67-10.81-.61C59.66,155.49,58.69,150.73,65.54,147Z"/><path class="cls-3" d="M91.53,147.4l1.08,7.48A3.14,3.14,0,0,1,91.12,158c-3.16,1.89-9.91,5.05-15.3,1.51,0,0-1-4.75,5.89-8.46Z"/><path class="cls-4" d="M81.71,151.08l9.82-3.68,0,.33-6.79,2.54c-6.86,3.71-5.89,8.47-5.89,8.47a10.67,10.67,0,0,0,7.74,1.42c-3.28,1.16-7.33,1.67-10.82-.62C75.82,159.54,74.85,154.79,81.71,151.08Z"/><path class="cls-5" d="M65.05,97.88s-.52,17,6.68,25.24c0,0,.3,9.86-2.22,17.26-1.5.29-5.63,4-5,7.2,0,0,9.81.58,15.76-3.39a22.66,22.66,0,0,1-3-12.86S79.4,95.81,86.45,92C86.45,92,75.5,88.11,65.05,97.88Z"/><path class="cls-6" d="M69.91,120.71C64.64,111.94,65.06,98,65.06,98c10.45-9.77,21.4-5.93,21.4-5.93-5.62,3.07-8.16,26.28-9,35.56C75,125.34,72.46,123,69.91,120.71Z"/><path class="cls-9" d="M160.69,22.11c-20.81,7.69-37,4.95-59.31,2.69C73.39,22,63.6,24.08,47.68,23c-7.38-.48-22.31,9.26-29.29,11.65L34,67.13s6.47,61.37,63.42,30.55c0,0,34.13,20.83,69.06-17.38C166.47,80.3,178.91,15.37,160.69,22.11Z"/><path class="cls-10" d="M58.26,97.23c6.49,2,13.49.67,20-1.29s8-4.31,14.7-5.11c10.24-1.21,15.73,5.2,36.76,2.4,14.72-2,26.55-14.24,33.35-9-33.23,32.72-65.45,13.9-65.45,13.9-11.31,6.12-25.33,11.36-38.2,7.2-8.48-2.74-14.73-9.41-18.79-17.14a61.33,61.33,0,0,1-5.72-16.4,86.29,86.29,0,0,0,5.32,9.13C44.71,87.87,50.31,94.84,58.26,97.23Z"/><path class="cls-10" d="M32.52,62.68a6.5,6.5,0,0,1,.71,2.38c-.35-1-.72-2.09-1.09-3.15Z"/><path class="cls-3" d="M192.6,138l1.08,7.48a3.14,3.14,0,0,1-1.5,3.15c-3.16,1.89-9.91,5.06-15.29,1.51,0,0-1-4.75,5.88-8.46Z"/><path class="cls-4" d="M182.92,141.62l2.3-.87a14.36,14.36,0,0,0-2.85,2.87c-.52.72-1,1.47-1.45,2.21-.21.34-.41.67-.63,1a6,6,0,0,0-.76,1.15,2.25,2.25,0,0,0,.58,1.67,6.42,6.42,0,0,0,3.33,2,10.18,10.18,0,0,1-6.41-1.58S176.06,145.33,182.92,141.62Z"/><path class="cls-5" d="M186.1,29.54a16.52,16.52,0,0,1,7.69,3.28,15,15,0,0,1,4.81,6.29,21.32,21.32,0,0,1,1.22,8.08c0,1.44-.12,2.91-.26,4.41l-.48,4.6a119,119,0,0,0-.72,18.92c.08,1.59.25,3.19.45,4.77.11.8.21,1.59.34,2.38s.29,1.58.47,2.36a43.4,43.4,0,0,0,3,9.11l2-.73a65.68,65.68,0,0,1-1.88-18c0-3,.28-6,.55-9.09s.64-6.09,1-9.15c.19-1.53.39-3.08.54-4.67a48.66,48.66,0,0,0,.29-4.89,28.44,28.44,0,0,0-.41-5.08,19.36,19.36,0,0,0-1.59-5A17.47,17.47,0,0,0,196,29.46a16.15,16.15,0,0,0-9.89-2.08Z"/><path class="cls-3" d="M207.73,94.64c3.71,4.84,4.65,7.36,6,15.34a19.67,19.67,0,0,1-3.65,14.51c1.26-3.59,0-7.6-1.82-10.92s-4.35-6.29-6-9.74c-1.28-2.77-2.27-6.84-.77-9.73S205.94,92.3,207.73,94.64Z"/><path class="cls-9" d="M145.11,54.45C137.3,30.06,165.54,9.65,186.06,25l.8.62s21.81,17,1.45,53.21c0,0,2.51,14.31,4.38,18.49l1.79,1.75a6.92,6.92,0,0,1,1.29,8.13c-5.09,9.87-4,14-2,31.5,0,0-6.48,7.05-14,5.23l2.35-4.68c1.39-1.52,3-3.66,2.82-5.71l-1.78-25.67S178,103.1,176.4,97C176.4,97,153,78.9,145.11,54.45Z"/><path class="cls-10" d="M186,87.89c-.89-1.6-2-5-1.74-5.58.16-.31.8-.77,1-1,1.52-1.69,3.09-3.33,4.55-5.06-.46.88-.94,1.78-1.45,2.69,0,0,2.47,13.08,4.25,18.34A53.7,53.7,0,0,1,186,87.89Z"/><path class="cls-9" d="M79.45,56.13s2.42,25.23,12.38,33.64c0,0-4.51,35.65,3.52,55.49,0,0-4.78,1.56-2.67,6,0,0-9.14,1.35-11.29-.21a8.87,8.87,0,0,1,4.66-6.46l-1.93-16S68.35,106.2,59.68,89C59.68,89,57.69,65.48,79.45,56.13Z"/><path class="cls-11" d="M144.47,54.41a13,13,0,0,1,2.92,13.2c-.86,2.42-2.7,4.7-5.22,5.18A10.6,10.6,0,0,1,136.9,72l-9.11-3.11A11.86,11.86,0,0,1,123,66.28c-2.36-2.44-2.1-6.62-.12-9.38C127.56,50.35,138.63,48.5,144.47,54.41Z"/><path class="cls-11" d="M175.72,55.1c-1.15,1.75-3.11,2.73-4.8,3.95s-3.27,3.07-3,5.14c.39,3,4.07,4.13,5.88,6.51,1,1.25,1.37,2.84,2.17,4.19s2.3,2.56,3.84,2.2,2.23-1.89,2.38-3.34-.19-2.91-.16-4.37c.06-2.89,1.53-5.53,2.86-8.09s2.59-5.37,2.22-8.23c-.35-2.68-3.61-6.17-6.58-5.71C177.25,47.85,177.16,52.91,175.72,55.1Z"/><path class="cls-11" d="M81.75,85.13c1.46,1.86,1.73,4.39,1.54,6.75s-.81,4.66-.9,7c-.08,1.92,0,4.18-1.45,5.37-1.78,1.41-4.43.19-6.06-1.39a16.37,16.37,0,0,1-4.63-8.35,10.69,10.69,0,0,1,.6-6.93C72.76,83.8,78.63,81.14,81.75,85.13Z"/><path class="cls-12" d="M76.76,26.83c1.72,2.46,2,6.22-.27,8.22a7.32,7.32,0,0,1-4.57,1.56c-6.57.33-17.09-6-16-13.27,5.52.06,10.8-.12,17.17-.1A16,16,0,0,1,76.76,26.83Z"/><path class="cls-11" d="M160.88,33.1c3.7,2.5,9.35,3.63,10.12,8,.82,4.66-4.79,7.77-6.46,12.18-.79,2.09-.87,4.77-2.79,5.9s-4.25,0-5.58-1.69-2-3.74-3.18-5.49c-4-5.87-12.3-6.43-19.37-6s-15.07,1-20.3-3.73c-4.06-3.7-5.2-9.83-4.07-15.2.1-.49.23-1,.37-1.46,16.61,1.76,30.25,2.93,46.25-1.93A12,12,0,0,0,160.88,33.1Z"/><path class="cls-11" d="M105,42.72c-.71,2.28-2.11,4.36-2.67,6.67-1.15,4.79,1.47,9.51,3.33,14.08s2.74,10.32-1,13.84c-2.59,2.42-6.87,3-10.25,1.67a12.09,12.09,0,0,1-7-7.33c-.86-2.44-1-5.08-2.14-7.42s-3.76-4.4-6.52-3.83-4.17,3.3-4.64,5.8-.38,5.16-1.71,7.39c-1.7,2.84-5.44,4.31-9,4.25a21.68,21.68,0,0,1-9.83-3.06c-5.41-3-10.57-8-9.53-13.77.84-4.69,5.6-8.23,6.46-12.92,1.42-7.72-8.09-13.94-7.82-21.74a9,9,0,0,1,.52-2.73,14,14,0,0,1,4.4-.58c2.89.19,5.57.27,8.2.3-1.05,7.25,9.47,13.6,16,13.27a7.32,7.32,0,0,0,4.57-1.56c2.24-2,2-5.76.27-8.22a16,16,0,0,0-3.71-3.59c6.13,0,13.27.23,22.62,1,.64.39,1.26.79,1.87,1.23C103.17,29.52,107,36.36,105,42.72Z"/><path class="cls-11" d="M192.72,46.38c-.74-1.58-1.07-3.31-1.65-5a16.7,16.7,0,0,0-7.93-9.11c-2.73-1.42-5.8-2.05-8.76-2.88s-6-1.95-8.18-4.11a9.08,9.08,0,0,1-2.52-4.69A25.44,25.44,0,0,1,186.06,25l.8.62s10,7.85,10.13,24.21a2.41,2.41,0,0,1-.54,0A5.71,5.71,0,0,1,192.72,46.38Z"/><path class="cls-13" d="M43.23,24.28c1.11,2.29,6.86,14.78,1.39,28.43A35.12,35.12,0,0,1,33.9,67c-1.68-3.46-3.78-7.72-5.78-12.46-3-7.1-5.12-16.54-3.67-25.11Z"/><path class="cls-14" d="M8.28,2.25A15.44,15.44,0,0,0,9.35,6.19a15.43,15.43,0,0,0,2.12,3.64,16.12,16.12,0,0,0,1.47,1.64,16,16,0,0,0,1.75,1.4,16.3,16.3,0,0,0,4.09,2,2.83,2.83,0,0,0,2-5.32,2.61,2.61,0,0,0-.81-.17h-.07a11.16,11.16,0,0,1-3.13-.48,11.4,11.4,0,0,1-1.53-.58,12,12,0,0,1-1.45-.86,12.56,12.56,0,0,1-2.59-2.37A13.86,13.86,0,0,1,9.19,2l0,0a.48.48,0,0,0-.62-.23A.46.46,0,0,0,8.28,2.25Z"/><path class="cls-15" d="M14.68,10.05a18.38,18.38,0,0,0,5.38,2.13,16.28,16.28,0,0,0,2.37.38,2.64,2.64,0,0,1-.15.55,2.83,2.83,0,0,1-3.64,1.68,16.3,16.3,0,0,1-4.09-2,14.91,14.91,0,0,1-1.75-1.4,17.17,17.17,0,0,1-1.47-1.63A15.29,15.29,0,0,1,9.21,6.07a15.74,15.74,0,0,1-.85-2.71A17.3,17.3,0,0,0,14.68,10.05Z"/><path class="cls-10" d="M36,51.32s-2.54,3.88-5.64,4.81C21.49,58.8,18,56.52,18,56.52A5,5,0,0,1,14.38,52Z"/><path class="cls-9" d="M35.24,49.22S32.71,53.1,29.61,54c-8.88,2.66-12.32.38-12.32.38a5,5,0,0,1-3.67-4.55Z"/><path class="cls-16" d="M17.71,17.46s1.2,4.9-1.22,7.33A10.37,10.37,0,0,1,7.13,26C1.85,24.06-.81,14.88.22,14.08,9.19,8.33,14.16,20.52,17.71,17.46Z"/><path d="M11.34,24.85a9,9,0,0,0,4-1.37,5.49,5.49,0,0,0,.91-3.79c-1.64-.07-3.16-1.21-4.76-2.41-2-1.52-4.31-3.24-6.94-3a7.21,7.21,0,0,0-2.84.92c.17,2,2.43,7.88,6,9.17a8.49,8.49,0,0,0,3.62.5Z"/><path class="cls-9" d="M27.36,5.8S42.84,2.33,45.91,22.37c0,0,7,30-14.39,31a4.43,4.43,0,0,1-1-.07c-2.27-.38-11.7-1.77-15.83.48a9.72,9.72,0,0,1,.72-12.48,21.78,21.78,0,0,0-1.14-11.13A10.3,10.3,0,0,1,15.86,19S16.86,7.48,27.36,5.8Z"/><path class="cls-8" d="M28.41,43.54c.26,1.67.48,5.55-2.48,8.11a4.41,4.41,0,0,1-2.59,1.05L18.88,53a4.49,4.49,0,0,1-4.39-2.6,13.07,13.07,0,0,1-1.24-6.09A1.47,1.47,0,0,1,14,43.1a15.71,15.71,0,0,1,13.45-.72A1.51,1.51,0,0,1,28.41,43.54Z"/><path class="cls-17" d="M17.74,31.15a13.34,13.34,0,0,1-3.21,11.24,13,13,0,0,1,.85-1.09,24.31,24.31,0,0,0-1.55-11,10.28,10.28,0,0,1,1.62-11.17s1-7.16,6.25-11C19.34,11.49,15.65,19,17.74,31.15Z"/><path class="cls-11" d="M30.62,18.67a17.26,17.26,0,0,1,10.64-7.91,23.37,23.37,0,0,1,4.1,7.13c3-2.14,6.46-9.24,14.12-6,1.14.61.06,10.11-4.83,12.89a10.23,10.23,0,0,1-7.56,1c.89,6.49,1.58,20.32-7.46,25.53a3.33,3.33,0,0,1-1.51.43c-7.29.21-5.87-5.2-9.68-11C25.61,36.48,24.84,28.09,30.62,18.67Z"/><path d="M50.31,24.38a8.49,8.49,0,0,0,3.49-1.1c3.29-1.87,4.53-8,4.37-10a7,7,0,0,0-3-.43c-2.64.22-4.61,2.3-6.34,4.13-1.38,1.46-2.69,2.84-4.3,3.18a5.56,5.56,0,0,0,1.54,3.58A9,9,0,0,0,50.31,24.38Z"/><path class="cls-18" d="M35.65,53.1a5.54,5.54,0,0,1-2.7.72,20.51,20.51,0,0,1-2.72-.07c-1.78-.14-3.53-.37-5.27-.52a30.62,30.62,0,0,0-5.15-.06,33.42,33.42,0,0,0-5,.81h0a.23.23,0,0,1-.29-.17.26.26,0,0,1,.07-.24,8.53,8.53,0,0,1,5.12-2,26,26,0,0,1,5.45.19c1.78.22,3.53.57,5.26.86s3.49.67,5,.1h0a.22.22,0,0,1,.3.13A.24.24,0,0,1,35.65,53.1Z"/><path class="cls-19" d="M13.52,43.77c.07.46,2.45,0,6.63-.16S28,43.26,28,42.77s-3.58-1.87-7.64-1.53S13.44,43.28,13.52,43.77Z"/><path d="M12.94,25.9a3,3,0,0,1,1.39,5.76C13.79,29.73,13,28,12.94,25.9Z"/><path class="cls-20" d="M13,26.88a2,2,0,0,1,1,3.82A11.4,11.4,0,0,1,13,26.88Z"/><path d="M13.16,27.59a1.27,1.27,0,0,1,1.3,1.24,1.39,1.39,0,0,1-.7,1.33,3.13,3.13,0,0,1-.65-2.56Z"/><path class="cls-21" d="M13.68,28.26a.37.37,0,1,0,.07-.54A.39.39,0,0,0,13.68,28.26Z"/><path class="cls-22" d="M25.73,44.07a4.1,4.1,0,0,0-.88.4c-.27.17-.54.35-.8.55a9.06,9.06,0,0,0-.75.64,6.14,6.14,0,0,0-.71.73.24.24,0,0,0,0,.33.22.22,0,0,0,.17.05,6.53,6.53,0,0,0,1-.18,9.31,9.31,0,0,0,.94-.28,9.06,9.06,0,0,0,.91-.36,4.72,4.72,0,0,0,.82-.52.79.79,0,0,0-.74-1.36Z"/><path class="cls-22" d="M14.52,46.29a3.88,3.88,0,0,0,.9.37,7.28,7.28,0,0,0,1,.21c.32.06.65.09,1,.12a6.8,6.8,0,0,0,1,0,.24.24,0,0,0,.22-.25.21.21,0,0,0-.08-.16,7.35,7.35,0,0,0-.81-.6c-.28-.18-.57-.35-.86-.5a7,7,0,0,0-.88-.41,4.26,4.26,0,0,0-.93-.25.79.79,0,0,0-.88.7A.81.81,0,0,0,14.52,46.29Z"/><path d="M33.28,29.43a3.87,3.87,0,0,0,.12-.68,5.05,5.05,0,0,0-.12-1.45,3,3,0,0,1,.13-1.58,3.08,3.08,0,0,1,2.15-1.95,3,3,0,0,1,1.57,5.88,3.12,3.12,0,0,1-1,.12,6.83,6.83,0,0,0-1.43,0c-.32.05-.63.11-.9.17A.42.42,0,0,1,33.28,29.43Z"/><path class="cls-20" d="M38.49,26.47a2.22,2.22,0,1,0-2,2.39A2.23,2.23,0,0,0,38.49,26.47Z"/><circle cx="36.28" cy="26.66" r="1.66"/><path class="cls-21" d="M36.56,25.5A.49.49,0,1,0,37,25,.49.49,0,0,0,36.56,25.5Z"/><path class="cls-23" d="M46,.59a17.77,17.77,0,0,1-.16,3.65,9.7,9.7,0,0,1-1,3.23,3.81,3.81,0,0,1-1.84,1.81,4.84,4.84,0,0,1-2.42.14l-.21,0a2.56,2.56,0,0,0-2.76,2.36A2.61,2.61,0,0,0,40,14.59a2.8,2.8,0,0,0,.71,0l1.19-.23A4.52,4.52,0,0,0,43.05,14c.4-.16.79-.32,1.17-.51s.73-.5,1.07-.76a7.64,7.64,0,0,0,2.45-4.19,12.72,12.72,0,0,0,.16-4.24A19.91,19.91,0,0,0,47,.36.52.52,0,0,0,46.38,0,.53.53,0,0,0,46,.56Z"/><path class="cls-24" d="M37.67,11.76A2.55,2.55,0,0,1,40.42,9.4l.22,0A5.19,5.19,0,0,0,43,9.31c-.28.23-.57.46-.88.68-1.07.79-2.62,1.81-2.64,3.31a2.25,2.25,0,0,0,.38,1.26A2.6,2.6,0,0,1,37.67,11.76Z"/><g class="cls-25"><path class="cls-10" d="M29.21,35.72a9.66,9.66,0,0,1,5.26-3.24c1.89-.57,4.11-.74,5.76-1.93a6.86,6.86,0,0,0,2.59-5.83,19.69,19.69,0,0,1,.56-5.13,17.33,17.33,0,0,0,.5-5,22.78,22.78,0,0,1,1.48,3.29c3-2.14,6.46-9.24,14.12-6,1.14.61.06,10.11-4.83,12.89a10.23,10.23,0,0,1-7.56,1c.89,6.49,1.58,20.32-7.46,25.53a3.33,3.33,0,0,1-1.51.43c-7.4.21-5.83-5.36-9.85-11.25v0A16.9,16.9,0,0,1,29.21,35.72Z"/></g></g></g></g></svg>